HIERARCHY
ROOT hip
{
  OFFSET 0 0 0
  CHANNELS 6 Xposition Yposition Zposition Zrotation Yrotation Xrotation
  JOINT abdomen
  {
    OFFSET 0 20.6881 -0.73152
    CHANNELS 3 Zrotation Xrotation Yrotation
    JOINT chest
    {
      OFFSET 0 11.7043 -0.48768
      CHANNELS 3 Zrotation Xrotation Yrotation
      JOINT neck
      {
        OFFSET 0 22.1894 -2.19456
        CHANNELS 3 Zrotation Xrotation Yrotation
        JOINT head
        {
          OFFSET -0.24384 7.07133 1.2192
          CHANNELS 3 Zrotation Xrotation Yrotation
          JOINT leftEye
          {
            OFFSET 4.14528 8.04674 8.04672
            CHANNELS 3 Zrotation Xrotation Yrotation
            End Site
            {
              OFFSET 1 0 0
            }
          }
          JOINT rightEye
          {
            OFFSET -3.6576 8.04674 8.04672
            CHANNELS 3 Zrotation Xrotation Yrotation
            End Site
            {
              OFFSET 1 0 0
            }
          }
        }
      }
      JOINT rCollar
      {
        OFFSET -2.68224 19.2634 -4.8768
        CHANNELS 3 Zrotation Xrotation Yrotation
        JOINT rShldr
        {
          OFFSET -8.77824 -1.95073 1.46304
          CHANNELS 3 Zrotation Xrotation Yrotation
          JOINT rForeArm
          {
            OFFSET -28.1742 -1.7115 0.48768
            CHANNELS 3 Zrotation Xrotation Yrotation
            JOINT rHand
            {
              OFFSET -22.5879 0.773209 7.07136
              CHANNELS 3 Zrotation Xrotation Yrotation
              JOINT rThumb1
              {
                OFFSET -1.2192 -0.487915 3.41376
                CHANNELS 3 Zrotation Xrotation Yrotation
                JOINT rThumb2
                {
                  OFFSET -3.37035 -0.52449 3.41376
                  CHANNELS 3 Zrotation Xrotation Yrotation
                  End Site
                  {
                    OFFSET -1.78271 -1.18214 1.43049
                  }
                }
              }
              JOINT rIndex1
              {
                OFFSET -7.75947 0.938293 5.60832
                CHANNELS 3 Zrotation Xrotation Yrotation
                JOINT rIndex2
                {
                  OFFSET -2.54057 -0.884171 1.56538
                  CHANNELS 3 Zrotation Xrotation Yrotation
                  End Site
                  {
                    OFFSET -1.62519 -0.234802 1.16502
                  }
                }
              }
              JOINT rMid1
              {
                OFFSET -8.24714 1.18213 3.41376
                CHANNELS 3 Zrotation Xrotation Yrotation
                JOINT rMid2
                {
                  OFFSET -3.10165 -0.590103 1.0647
                  CHANNELS 3 Zrotation Xrotation Yrotation
                  End Site
                  {
                    OFFSET -2.48547 -0.328903 0.83742
                  }
                }
              }
              JOINT rRing1
              {
                OFFSET -8.82822 0.546677 1.51678
                CHANNELS 3 Zrotation Xrotation Yrotation
                JOINT rRing2
                {
                  OFFSET -2.60934 -0.819778 -0.0198488
                  CHANNELS 3 Zrotation Xrotation Yrotation
                  End Site
                  {
                    OFFSET -2.33842 -0.294052 0.168128
                  }
                }
              }
              JOINT rPinky1
              {
                OFFSET -8.27202 -0.0477905 -0.4584
                CHANNELS 3 Zrotation Xrotation Yrotation
                JOINT rPinky2
                {
                  OFFSET -1.82734 -0.647385 -0.700984
                  CHANNELS 3 Zrotation Xrotation Yrotation
                  End Site
                  {
                    OFFSET -1.69225 -0.51767 -0.607171
                  }
                }
              }
            }
          }
        }
      }
      JOINT lCollar
      {
        OFFSET 2.68224 19.2634 -4.8768
        CHANNELS 3 Zrotation Xrotation Yrotation
        JOINT lShldr
        {
          OFFSET 8.77824 -1.95073 1.46304
          CHANNELS 3 Zrotation Xrotation Yrotation
          JOINT lForeArm
          {
            OFFSET 28.1742 -1.7115 0.48768
            CHANNELS 3 Zrotation Xrotation Yrotation
            JOINT lHand
            {
              OFFSET 22.5879 0.773209 7.07136
              CHANNELS 3 Zrotation Xrotation Yrotation
              JOINT lThumb1
              {
                OFFSET 1.2192 -0.487915 3.41376
                CHANNELS 3 Zrotation Xrotation Yrotation
                JOINT lThumb2
                {
                  OFFSET 3.37035 -0.52449 3.41376
                  CHANNELS 3 Zrotation Xrotation Yrotation
                  End Site
                  {
                    OFFSET 1.78271 -1.18214 1.43049
                  }
                }
              }
              JOINT lIndex1
              {
                OFFSET 7.75947 0.938293 5.60832
                CHANNELS 3 Zrotation Xrotation Yrotation
                JOINT lIndex2
                {
                  OFFSET 2.54057 -0.884171 1.56538
                  CHANNELS 3 Zrotation Xrotation Yrotation
                  End Site
                  {
                    OFFSET 1.62519 -0.234802 1.16502
                  }
                }
              }
              JOINT lMid1
              {
                OFFSET 8.24714 1.18213 3.41376
                CHANNELS 3 Zrotation Xrotation Yrotation
                JOINT lMid2
                {
                  OFFSET 3.10165 -0.590103 1.0647
                  CHANNELS 3 Zrotation Xrotation Yrotation
                  End Site
                  {
                    OFFSET 2.48547 -0.328903 0.83742
                  }
                }
              }
              JOINT lRing1
              {
                OFFSET 8.82822 0.546677 1.51678
                CHANNELS 3 Zrotation Xrotation Yrotation
                JOINT lRing2
                {
                  OFFSET 2.60934 -0.819778 -0.0198488
                  CHANNELS 3 Zrotation Xrotation Yrotation
                  End Site
                  {
                    OFFSET 2.33842 -0.294052 0.168128
                  }
                }
              }
              JOINT lPinky1
              {
                OFFSET 8.27202 -0.0477905 -0.4584
                CHANNELS 3 Zrotation Xrotation Yrotation
                JOINT lPinky2
                {
                  OFFSET 1.82734 -0.647385 -0.700984
                  CHANNELS 3 Zrotation Xrotation Yrotation
                  End Site
                  {
                    OFFSET 1.69225 -0.51767 -0.607171
                  }
                }
              }
            }
          }
        }
      }
    }
  }
  JOINT rButtock
  {
    OFFSET -8.77824 4.35084 1.2192
    CHANNELS 3 Zrotation Xrotation Yrotation
    JOINT rThigh
    {
      OFFSET 0 -1.70687 -2.19456
      CHANNELS 3 Zrotation Xrotation Yrotation
      JOINT rShin
      {
        OFFSET 0 -36.8199 0.73152
        CHANNELS 3 Zrotation Xrotation Yrotation
        JOINT rFoot
        {
          OFFSET 0.73152 -45.1104 -5.12064
          CHANNELS 3 Zrotation Xrotation Yrotation
          End Site
          {
            OFFSET -1.1221 -3.69964 12.103
          }
        }
      }
    }
  }
  JOINT lButtock
  {
    OFFSET 8.77824 4.35084 1.2192
    CHANNELS 3 Zrotation Xrotation Yrotation
    JOINT lThigh
    {
      OFFSET 0 -1.70687 -2.19456
      CHANNELS 3 Zrotation Xrotation Yrotation
      JOINT lShin
      {
        OFFSET 0 -36.8199 0.73152
        CHANNELS 3 Zrotation Xrotation Yrotation
        JOINT lFoot
        {
          OFFSET -0.73152 -45.1104 -5.12064
          CHANNELS 3 Zrotation Xrotation Yrotation
          End Site
          {
            OFFSET 1.1221 -3.69964 12.103
          }
        }
      }
    }
  }
}
MOTION
Frames:	4
Frame Time:	0.00833333
80.18190002441406 67.50039672851562 56.18669891357422 -119.500964 38.673655 -124.123758 11.318809 16.806977 -7.660711 7.152319 -3.243688 -7.605946 -9.694646 10.243062 -36.188193 37.174587 -5.709981 28.565917 -34.402227 -15.344068 47.031794 173.731102 -0.273244 4.986601 2.523557 5.872752 11.978299 -36.770383 -47.163201 -82.494734 146.618464 0.08147 21.29867 -170.072703 -5.653361 110.64044 165.216851 6.351529 77.764911 -64.116912 -60.290141 -129.038444 1.021857 -49.010943 54.767972 127.098117 71.97314 -91.157844 88.713809 61.852972 -1.991555 106.848882 -57.019184 -151.926243 99.257189 -12.685961 36.47172 -105.903038 10.163013 70.620625 -164.062586 37.301294 -15.64429 118.299624 41.67378 123.495507 152.60733 -24.223385 177.122933 -164.359527 23.729396 104.505042 -5.937681 -21.362996 -63.0506 20.563903 18.81702 0.093893 77.492072 45.04584 -53.503024 169.204318 -48.95779 178.516456 175.699346 -28.487683 -139.129202 -174.582541 -20.279484 -173.885278 160.694507 -51.372616 -172.409468 -157.817191 10.176517 127.914583 -29.311004 6.892612 1.126135 -75.174915 49.271876 55.588937 58.70024 17.091322 -58.46697 14.22506 21.472672 -113.778285 -10.371593 -26.648092 5.958748 -33.454373 -12.208508 93.939254 76.227507 -15.11115 -45.514714 -106.340543 25.920195 52.604598 11.131796 -3.538705 -10.739604 59.629587 -0.324246 -89.830488 -27.38968 -44.181165 48.446031 -8.428354 9.731227 72.712538
83.41120147705078 70.71800231933594 56.549102783203125 -118.510694 35.740502 -122.313243 11.501582 12.965402 112.101266 -6.312023 -6.042926 -133.381796 -18.449244 21.175449 -85.198392 37.313437 35.376094 72.864951 -48.430523 -25.44935 53.322221 170.029284 -2.510983 28.206197 9.394268 -7.9573 12.616271 -140.566882 2.533938 -133.411721 -160.404825 22.916911 -73.713703 -33.751877 22.518153 -16.342594 -13.942109 -7.856687 6.129309 -154.804049 -27.80962 62.566843 -149.728404 -4.318487 48.85654 12.701355 -11.117699 66.141805 88.542133 68.057343 -20.299005 -33.534965 73.391386 -102.289409 67.095732 -18.214707 14.772315 -130.983835 14.851731 91.070529 -176.315202 42.610099 -9.723363 -154.71511 50.733714 52.354816 150.555378 84.524917 -152.741893 75.295175 34.798388 -6.758368 -13.392931 -8.275551 90.640904 175.558441 -3.441864 -140.465905 -28.418562 -11.522876 2.61226 106.196212 -5.094659 -32.707787 23.196153 -53.342532 31.844086 89.65296 -17.688512 -174.116257 33.598527 -76.749061 57.134665 -132.196226 43.04114 80.012271 114.611592 -20.043346 156.993003 -15.795405 -11.012231 -0.085363 38.501391 -19.547815 -48.585434 54.856576 48.577781 168.974333 -42.346322 -23.015677 -42.627663 7.896831 -14.22939 1.513987 -65.931737 53.179139 -36.7581 -3.398766 8.653571 88.689302 45.884312 7.391862 29.645553 17.498735 -29.041531 -159.50548 10.667396 -40.002538 -157.512666 -68.502517 10.003397 20.561646
85.73920440673828 73.64939880371094 56.56769943237305 -118.309098 33.852759 -120.79469 15.547464 15.086391 -11.013842 6.674085 -7.949445 -14.962852 -23.403188 16.025696 -57.240957 42.205972 26.192236 50.405912 -123.67545 14.202188 26.199315 1.155434 0.333086 32.161269 -64.248957 50.45303 76.091431 62.27679 24.584297 26.443194 -82.989889 -84.668734 21.68563 -40.029488 17.412523 -4.733705 -174.090717 -3.506779 90.547757 -65.905026 37.886968 12.506709 -151.256743 -31.455921 58.697129 -173.901207 -16.749605 33.476127 86.081775 58.564536 -44.736509 103.437075 -59.252609 -154.700041 43.75832 0.143185 3.890401 151.470099 -18.795681 119.698141 47.397918 -28.185182 -87.613168 169.705257 -41.853674 99.959771 165.977726 47.82379 -176.562345 43.674451 23.732899 41.111517 157.721302 5.753205 128.450168 -1.572835 -21.615577 6.167799 158.773974 -21.136527 -93.825686 3.391567 16.53982 -12.369836 133.168937 56.393664 -87.20831 168.245366 11.88633 -48.672322 83.057306 78.962486 -75.530204 -65.66231 -17.774569 -109.207821 115.884719 -27.706909 150.835403 -28.10978 32.198074 3.059298 87.083342 22.670538 -88.485812 -105.54559 -37.411035 -45.513073 0.507563 -41.868879 1.419718 -34.422191 -6.392046 88.897837 60.057593 21.11124 -145.266719 68.904323 22.117788 -2.463615 -2.503457 0.929732 -2.572697 78.72107 -6.500648 -68.129177 -38.089 -29.118617 -135.949496 -144.974393 36.411603 94.73077
87.3125 76.12249755859375 56.41499710083008 -118.535004 33.208519 -119.930995 18.174345 10.602358 -126.833293 3.763193 6.917208 95.482893 -8.025334 20.702385 123.990928 -31.580615 -13.134378 -120.926992 -138.450717 -3.430935 -9.028034 -0.621158 -0.07947 14.581294 -122.564795 27.820277 126.29591 -107.216758 2.959304 110.505708 65.472498 -70.09639 -72.123066 -151.396218 0.714884 140.00971 168.841099 -26.185633 95.179855 -140.907604 -72.589814 -168.279792 119.415939 -49.07834 14.689666 -177.511675 32.914691 40.620257 -45.463056 -54.220473 -99.198977 -1.833918 -68.711172 -171.087494 25.068015 -25.902049 -12.371152 5.96619 27.106615 43.104265 62.144236 -7.737045 -61.47751 -151.97346 6.015047 149.18298 162.123133 23.364957 179.850434 -91.874219 24.801272 106.581881 -162.833437 -43.900704 -75.542084 174.162776 23.126081 -134.984698 -17.384153 10.526953 12.518501 -0.953777 -43.063703 -25.307188 30.7523 -80.123551 52.283056 -3.030418 -41.993771 62.956511 -5.212904 58.811654 9.407519 -44.205905 -20.797671 -91.176615 -15.967934 -21.542373 15.426706 160.213002 36.823104 -149.652035 57.701892 2.723539 -86.516298 -175.640266 33.226921 1.291083 59.674926 -14.225171 71.377842 -88.193979 32.824113 -6.100487 -19.34315 42.504262 62.059341 -159.453426 -55.470337 92.715349 -159.564685 70.973675 -18.070988 -110.944406 15.886547 46.380787 16.478356 32.027173 -110.817708 -30.404026 -53.51007 76.637176
